<mxfile host="app.diagrams.net" agent="Mozilla/5.0 (X11; Linux x86_64; rv:143.0) Gecko/20100101 Firefox/143.0" version="28.2.7">
  <diagram name="Page-1" id="plZG5J3ITNonkHL6VjKZ">
    <mxGraphModel dx="594" dy="772" grid="0" gridSize="10" guides="1" tooltips="1" connect="1" arrows="1" fold="1" page="0" pageScale="1" pageWidth="827" pageHeight="1169" math="0" shadow="0">
      <root>
        <mxCell id="0" />
        <mxCell id="1" parent="0" />
        <mxCell id="2LwZDcgTUwVih_5da01n-20" value="" style="edgeStyle=none;curved=1;rounded=0;orthogonalLoop=1;jettySize=auto;html=1;fontSize=12;startSize=8;endSize=8;entryX=0.5;entryY=0;entryDx=0;entryDy=0;strokeColor=default;endArrow=none;endFill=0;" edge="1" parent="1" source="2LwZDcgTUwVih_5da01n-1" target="2LwZDcgTUwVih_5da01n-12">
          <mxGeometry relative="1" as="geometry" />
        </mxCell>
        <mxCell id="2LwZDcgTUwVih_5da01n-22" value="&lt;div&gt;enrolls on&lt;/div&gt;" style="edgeLabel;html=1;align=center;verticalAlign=middle;resizable=0;points=[];fontSize=12;" vertex="1" connectable="0" parent="2LwZDcgTUwVih_5da01n-20">
          <mxGeometry x="-0.0537" relative="1" as="geometry">
            <mxPoint as="offset" />
          </mxGeometry>
        </mxCell>
        <mxCell id="2LwZDcgTUwVih_5da01n-1" value="&lt;div&gt;Student&lt;/div&gt;" style="swimlane;fontStyle=1;align=center;verticalAlign=top;childLayout=stackLayout;horizontal=1;startSize=26;horizontalStack=0;resizeParent=1;resizeParentMax=0;resizeLast=0;collapsible=1;marginBottom=0;whiteSpace=wrap;html=1;" vertex="1" parent="1">
          <mxGeometry x="120" y="155" width="181" height="115" as="geometry">
            <mxRectangle x="120" y="155" width="79" height="26" as="alternateBounds" />
          </mxGeometry>
        </mxCell>
        <mxCell id="2LwZDcgTUwVih_5da01n-2" value="+id: Int&lt;br&gt;+name: String&lt;br&gt;+degreeProgramme: String&lt;br&gt;&lt;div&gt;+levelOfStudy: Int&lt;/div&gt;&lt;div&gt;&lt;br&gt;&lt;/div&gt;&lt;div&gt;&lt;br&gt;&lt;/div&gt;&lt;div&gt;&lt;br&gt;&lt;/div&gt;&lt;div&gt;&lt;br&gt;&lt;/div&gt;&lt;div&gt;&lt;pre data-processed=&quot;true&quot; class=&quot;mermaid&quot;&gt;&lt;div style=&quot;display: table-cell; white-space: nowrap; line-height: 1.5; max-width: 198px; text-align: center;&quot;&gt;&lt;span class=&quot;nodeLabel markdown-node-label&quot; style=&quot;&quot;&gt;&lt;p&gt;moduleCode: String&lt;/p&gt;&lt;/span&gt;&lt;/div&gt;&lt;div style=&quot;display: table-cell; white-space: nowrap; line-height: 1.5; max-width: 130px; text-align: center;&quot;&gt;&lt;span class=&quot;nodeLabel markdown-node-label&quot; style=&quot;&quot;&gt;&lt;p&gt;title: String&lt;/p&gt;&lt;/span&gt;&lt;/div&gt;&lt;div style=&quot;display: table-cell; white-space: nowrap; line-height: 1.5; max-width: 166px; text-align: center;&quot;&gt;&lt;span class=&quot;nodeLabel markdown-node-label&quot; style=&quot;&quot;&gt;&lt;p&gt;numCredits: Int&lt;/p&gt;&lt;/span&gt;&lt;/div&gt;&lt;div style=&quot;display: table-cell; white-space: nowrap; line-height: 1.5; max-width: 281px; text-align: center;&quot;&gt;&lt;span class=&quot;nodeLabel markdown-node-label&quot; style=&quot;&quot;&gt;&lt;p&gt;enrolStudent(student: Student)&lt;/p&gt;&lt;/span&gt;&lt;/div&gt;&lt;div style=&quot;display: table-cell; white-space: nowrap; line-height: 1.5; max-width: 326px; text-align: center;&quot;&gt;&lt;span class=&quot;nodeLabel markdown-node-label&quot; style=&quot;&quot;&gt;&lt;p&gt;generateTranscript(student: Student&lt;/p&gt;&lt;/span&gt;&lt;/div&gt;&lt;/pre&gt;&lt;br&gt;&lt;/div&gt;" style="text;strokeColor=none;fillColor=none;align=left;verticalAlign=top;spacingLeft=4;spacingRight=4;overflow=hidden;rotatable=0;points=[[0,0.5],[1,0.5]];portConstraint=eastwest;whiteSpace=wrap;html=1;" vertex="1" parent="2LwZDcgTUwVih_5da01n-1">
          <mxGeometry y="26" width="181" height="69" as="geometry" />
        </mxCell>
        <mxCell id="2LwZDcgTUwVih_5da01n-3" value="" style="line;strokeWidth=1;fillColor=none;align=left;verticalAlign=middle;spacingTop=-1;spacingLeft=3;spacingRight=3;rotatable=0;labelPosition=right;points=[];portConstraint=eastwest;strokeColor=inherit;" vertex="1" parent="2LwZDcgTUwVih_5da01n-1">
          <mxGeometry y="95" width="181" height="20" as="geometry" />
        </mxCell>
        <mxCell id="2LwZDcgTUwVih_5da01n-12" value="&lt;div&gt;Module&lt;/div&gt;" style="swimlane;fontStyle=1;align=center;verticalAlign=top;childLayout=stackLayout;horizontal=1;startSize=26;horizontalStack=0;resizeParent=1;resizeParentMax=0;resizeLast=0;collapsible=1;marginBottom=0;whiteSpace=wrap;html=1;" vertex="1" parent="1">
          <mxGeometry x="95" y="311" width="231" height="145" as="geometry" />
        </mxCell>
        <mxCell id="2LwZDcgTUwVih_5da01n-13" value="+moduleCode: String&lt;br&gt;+title: String&lt;br&gt;&lt;div&gt;+numCredits: Int&lt;/div&gt;" style="text;strokeColor=none;fillColor=none;align=left;verticalAlign=top;spacingLeft=4;spacingRight=4;overflow=hidden;rotatable=0;points=[[0,0.5],[1,0.5]];portConstraint=eastwest;whiteSpace=wrap;html=1;" vertex="1" parent="2LwZDcgTUwVih_5da01n-12">
          <mxGeometry y="26" width="231" height="58" as="geometry" />
        </mxCell>
        <mxCell id="2LwZDcgTUwVih_5da01n-14" value="" style="line;strokeWidth=1;fillColor=none;align=left;verticalAlign=middle;spacingTop=-1;spacingLeft=3;spacingRight=3;rotatable=0;labelPosition=right;points=[];portConstraint=eastwest;strokeColor=inherit;" vertex="1" parent="2LwZDcgTUwVih_5da01n-12">
          <mxGeometry y="84" width="231" height="14" as="geometry" />
        </mxCell>
        <mxCell id="2LwZDcgTUwVih_5da01n-15" value="&lt;div&gt;+enrolStudent(student: Student)&lt;/div&gt;+generateTranscript(student: Student&lt;div&gt;&lt;br&gt;&lt;br&gt;&lt;/div&gt;" style="text;strokeColor=none;fillColor=none;align=left;verticalAlign=top;spacingLeft=4;spacingRight=4;overflow=hidden;rotatable=0;points=[[0,0.5],[1,0.5]];portConstraint=eastwest;whiteSpace=wrap;html=1;" vertex="1" parent="2LwZDcgTUwVih_5da01n-12">
          <mxGeometry y="98" width="231" height="47" as="geometry" />
        </mxCell>
      </root>
    </mxGraphModel>
  </diagram>
</mxfile>
